<svg xmlns="http://www.w3.org/2000/svg" xmlns:xlink="http://www.w3.org/1999/xlink" width="2000" zoomAndPan="magnify" viewBox="0 0 1500 1499.999933" height="2000" preserveAspectRatio="xMidYMid meet" version="1.0"><defs><clipPath id="2cea217c71"><path d="M 182.601562 210.425781 L 1317.351562 210.425781 L 1317.351562 1237.175781 L 182.601562 1237.175781 Z M 182.601562 210.425781 " clip-rule="nonzero"/></clipPath></defs><path fill="#c4aa6d" d="M 829.308594 656.996094 C 848.441406 656.980469 836.921875 631.152344 890.984375 642.308594 C 890.984375 642.308594 845.648438 615.125 803.628906 615.125 C 777.46875 615.125 767.484375 630.066406 767.484375 630.066406 C 767.484375 630.066406 779.28125 629.769531 790.546875 636.058594 C 803.3125 643.1875 816.40625 657.003906 829.308594 656.996094 " fill-opacity="1" fill-rule="nonzero"/><g clip-path="url(#2cea217c71)"><path fill="#c4aa6d" d="M 1020.082031 615.125 C 1007.53125 609.097656 994.566406 602.648438 981.257812 595.816406 C 965.382812 587.671875 949.109375 580.488281 932.753906 573.460938 C 1028.632812 538.238281 1013.003906 418.5625 922.230469 391.429688 C 1040.480469 396.492188 1090.632812 527.585938 1020.082031 615.125 Z M 548.636719 795.148438 C 493.675781 806.269531 446.570312 797.765625 407.128906 761.542969 C 453.648438 764.472656 488.316406 725.773438 519.195312 701.917969 C 552.929688 675.855469 580.769531 664.285156 580.769531 664.285156 C 263.4375 558.027344 392.769531 278.355469 565.773438 336.460938 C 460.308594 328.390625 400.871094 461.601562 523.117188 524.289062 C 560.496094 543.457031 612.945312 543.390625 636.957031 545.222656 C 645.730469 545.894531 648.46875 552.066406 648.46875 552.066406 C 716.15625 537.59375 788.402344 545.324219 851.492188 573.792969 C 882.007812 587.5625 913.203125 599.488281 942.984375 614.773438 C 1045.542969 667.402344 1113.90625 697.011719 1152.085938 678.984375 C 1161.375 674.597656 1171.390625 672.589844 1178.949219 679.542969 C 1232.253906 728.597656 1190.792969 853.617188 1119.796875 895.246094 C 1086.070312 854.988281 969.332031 855.117188 888.84375 906.371094 C 797.03125 964.839844 782.988281 1066.699219 786.128906 1103.300781 C 786.128906 1103.300781 823.417969 932.542969 985.675781 932.542969 C 985.675781 932.542969 930.394531 948.246094 913.707031 999.277344 C 1023.3125 1017.570312 1073.195312 1131.6875 1181.941406 1145.574219 C 1266.363281 1046.53125 1317.324219 918.097656 1317.324219 777.761719 C 1317.324219 464.433594 1063.324219 210.429688 749.996094 210.429688 C 436.667969 210.429688 182.664062 464.433594 182.664062 777.761719 C 182.664062 966.875 275.203125 1134.371094 417.464844 1237.460938 C 348.34375 977.253906 548.636719 795.148438 548.636719 795.148438 " fill-opacity="1" fill-rule="nonzero"/></g><path fill="#c4aa6d" d="M 1179.988281 744.117188 C 1179.988281 744.117188 1183.152344 732.15625 1179.988281 722.855469 C 1173.28125 703.144531 1153.105469 699.886719 1149.890625 720.566406 C 1149.890625 720.566406 1175.738281 709.941406 1179.988281 744.117188 " fill-opacity="1" fill-rule="nonzero"/></svg>